<?xml version="1.0" encoding="UTF-8"?><svg xmlns="http://www.w3.org/2000/svg" xmlns:xlink="http://www.w3.org/1999/xlink" fill-opacity="1" color-rendering="auto" color-interpolation="auto" text-rendering="auto" stroke="black" stroke-linecap="square" width="229" stroke-miterlimit="10" shape-rendering="auto" stroke-opacity="1" fill="black" stroke-dasharray="none" font-weight="normal" stroke-width="1" height="460" font-family="'Dialog'" font-style="normal" stroke-linejoin="miter" font-size="12px" stroke-dashoffset="0" image-rendering="auto">
  <!--Generated by ySVG 2.5-->
  <defs id="genericDefs"/>
  <g>
    <defs id="defs1">
      <clipPath clipPathUnits="userSpaceOnUse" id="clipPath1">
        <path d="M0 0 L229 0 L229 460 L0 460 L0 0 Z"/>
      </clipPath>
      <clipPath clipPathUnits="userSpaceOnUse" id="clipPath2">
        <path d="M-5 -15 L224 -15 L224 445 L-5 445 L-5 -15 Z"/>
      </clipPath>
    </defs>
    <g fill="white" text-rendering="geometricPrecision" shape-rendering="geometricPrecision" transform="translate(5,15)" stroke="white">
      <rect x="-5" width="229" height="460" y="-15" clip-path="url(#clipPath2)" stroke="none"/>
    </g>
    <g fill="rgb(0,158,255)" text-rendering="geometricPrecision" shape-rendering="geometricPrecision" transform="matrix(1,0,0,1,5,15)" stroke="rgb(0,158,255)">
      <ellipse rx="36.0098" ry="13.7031" clip-path="url(#clipPath2)" cx="96.0298" cy="13.7031" stroke="none"/>
    </g>
    <g text-rendering="geometricPrecision" stroke-miterlimit="1.45" shape-rendering="geometricPrecision" transform="matrix(1,0,0,1,5,15)" stroke-linecap="butt">
      <ellipse rx="36.0098" fill="none" ry="13.7031" clip-path="url(#clipPath2)" cx="96.0298" cy="13.7031"/>
      <text x="67.02" y="17.8633" clip-path="url(#clipPath2)" fill="white" font-family="sans-serif" stroke="none" xml:space="preserve">GameStart</text>
    </g>
    <g fill="rgb(191,4,4)" text-rendering="geometricPrecision" shape-rendering="geometricPrecision" transform="matrix(1,0,0,1,5,15)" stroke="rgb(191,4,4)">
      <ellipse rx="34.0146" ry="13.7031" clip-path="url(#clipPath2)" cx="96.0298" cy="415.5469" stroke="none"/>
    </g>
    <g text-rendering="geometricPrecision" stroke-miterlimit="1.45" shape-rendering="geometricPrecision" transform="matrix(1,0,0,1,5,15)" stroke-linecap="butt">
      <ellipse rx="34.0146" fill="none" ry="13.7031" clip-path="url(#clipPath2)" cx="96.0298" cy="415.5469"/>
      <text x="69.0151" y="419.707" clip-path="url(#clipPath2)" fill="white" font-family="sans-serif" stroke="none" xml:space="preserve">GameEnd</text>
    </g>
    <g fill="rgb(0,158,255)" text-rendering="geometricPrecision" shape-rendering="geometricPrecision" transform="matrix(1,0,0,1,5,15)" stroke="rgb(0,158,255)">
      <ellipse rx="22.3428" ry="13.7031" clip-path="url(#clipPath2)" cx="96.0298" cy="71.1094" stroke="none"/>
    </g>
    <g text-rendering="geometricPrecision" stroke-miterlimit="1.45" shape-rendering="geometricPrecision" transform="matrix(1,0,0,1,5,15)" stroke-linecap="butt">
      <ellipse rx="22.3428" fill="none" ry="13.7031" clip-path="url(#clipPath2)" cx="96.0298" cy="71.1094"/>
      <text x="80.687" y="75.2695" clip-path="url(#clipPath2)" fill="white" font-family="sans-serif" stroke="none" xml:space="preserve">Battle</text>
    </g>
    <g fill="rgb(0,158,255)" text-rendering="geometricPrecision" shape-rendering="geometricPrecision" transform="matrix(1,0,0,1,5,15)" stroke="rgb(0,158,255)">
      <ellipse rx="25.3398" ry="13.7031" clip-path="url(#clipPath2)" cx="96.0298" cy="300.7344" stroke="none"/>
    </g>
    <g text-rendering="geometricPrecision" stroke-miterlimit="1.45" shape-rendering="geometricPrecision" transform="matrix(1,0,0,1,5,15)" stroke-linecap="butt">
      <ellipse rx="25.3398" fill="none" ry="13.7031" clip-path="url(#clipPath2)" cx="96.0298" cy="300.7344"/>
      <text x="77.6899" y="304.8945" clip-path="url(#clipPath2)" fill="white" font-family="sans-serif" stroke="none" xml:space="preserve">Collect</text>
    </g>
    <g fill="rgb(27,140,72)" text-rendering="geometricPrecision" shape-rendering="geometricPrecision" transform="matrix(1,0,0,1,5,15)" stroke="rgb(27,140,72)">
      <ellipse rx="37.3486" ry="13.7031" clip-path="url(#clipPath2)" cx="96.0298" cy="128.5156" stroke="none"/>
    </g>
    <g text-rendering="geometricPrecision" stroke-miterlimit="1.45" shape-rendering="geometricPrecision" transform="matrix(1,0,0,1,5,15)" stroke-linecap="butt">
      <ellipse rx="37.3486" fill="none" ry="13.7031" clip-path="url(#clipPath2)" cx="96.0298" cy="128.5156"/>
      <text x="65.6811" y="132.6758" clip-path="url(#clipPath2)" fill="white" font-family="sans-serif" stroke="none" xml:space="preserve">Declaration</text>
    </g>
    <g fill="rgb(0,158,255)" text-rendering="geometricPrecision" shape-rendering="geometricPrecision" transform="matrix(1,0,0,1,5,15)" stroke="rgb(0,158,255)">
      <ellipse rx="21.001" ry="13.7031" clip-path="url(#clipPath2)" cx="96.0298" cy="358.1406" stroke="none"/>
    </g>
    <g text-rendering="geometricPrecision" stroke-miterlimit="1.45" shape-rendering="geometricPrecision" transform="matrix(1,0,0,1,5,15)" stroke-linecap="butt">
      <ellipse rx="21.001" fill="none" ry="13.7031" clip-path="url(#clipPath2)" cx="96.0298" cy="358.1406"/>
      <text x="82.0288" y="362.3008" clip-path="url(#clipPath2)" fill="white" font-family="sans-serif" stroke="none" xml:space="preserve">Draw</text>
    </g>
    <g fill="rgb(191,4,4)" text-rendering="geometricPrecision" shape-rendering="geometricPrecision" transform="matrix(1,0,0,1,5,15)" stroke="rgb(191,4,4)">
      <ellipse rx="33.6807" ry="13.7031" clip-path="url(#clipPath2)" cx="43.681" cy="185.9219" stroke="none"/>
    </g>
    <g text-rendering="geometricPrecision" stroke-miterlimit="1.45" shape-rendering="geometricPrecision" transform="matrix(1,0,0,1,5,15)" stroke-linecap="butt">
      <ellipse rx="33.6807" fill="none" ry="13.7031" clip-path="url(#clipPath2)" cx="43.681" cy="185.9219"/>
      <text x="17.0003" y="190.082" clip-path="url(#clipPath2)" fill="white" font-family="sans-serif" stroke="none" xml:space="preserve">Surrender</text>
    </g>
    <g fill="rgb(27,140,72)" text-rendering="geometricPrecision" shape-rendering="geometricPrecision" transform="matrix(1,0,0,1,5,15)" stroke="rgb(27,140,72)">
      <ellipse rx="30.0156" ry="13.7031" clip-path="url(#clipPath2)" cx="148.3786" cy="185.9219" stroke="none"/>
    </g>
    <g text-rendering="geometricPrecision" stroke-miterlimit="1.45" shape-rendering="geometricPrecision" transform="matrix(1,0,0,1,5,15)" stroke-linecap="butt">
      <ellipse rx="30.0156" fill="none" ry="13.7031" clip-path="url(#clipPath2)" cx="148.3786" cy="185.9219"/>
      <text x="125.3629" y="190.082" clip-path="url(#clipPath2)" fill="white" font-family="sans-serif" stroke="none" xml:space="preserve">Regroup</text>
    </g>
    <g fill="rgb(27,140,72)" text-rendering="geometricPrecision" shape-rendering="geometricPrecision" transform="matrix(1,0,0,1,5,15)" stroke="rgb(27,140,72)">
      <ellipse rx="19.3398" ry="13.7031" clip-path="url(#clipPath2)" cx="96.0298" cy="243.3281" stroke="none"/>
    </g>
    <g text-rendering="geometricPrecision" stroke-miterlimit="1.45" shape-rendering="geometricPrecision" transform="matrix(1,0,0,1,5,15)" stroke-linecap="butt">
      <ellipse rx="19.3398" fill="none" ry="13.7031" clip-path="url(#clipPath2)" cx="96.0298" cy="243.3281"/>
      <text x="83.6899" y="247.4883" clip-path="url(#clipPath2)" fill="white" font-family="sans-serif" stroke="none" xml:space="preserve">Duel</text>
      <path fill="none" d="M96.0298 27.4062 L96.0298 49.4062" clip-path="url(#clipPath2)"/>
      <path d="M96.0298 57.4062 L101.0298 45.4062 L96.0298 48.4062 L91.0298 45.4062 Z" clip-path="url(#clipPath2)" stroke="none"/>
      <path fill="none" d="M110.9249 84.8125 L110.9249 99.8125 L193.3944 99.8125 L193.3944 300.7344 L129.3696 300.7344" clip-path="url(#clipPath2)"/>
      <path d="M121.3696 300.7344 L133.3696 305.7344 L130.3696 300.7344 L133.3696 295.7344 Z" clip-path="url(#clipPath2)" stroke="none"/>
      <path fill="none" d="M96.0298 84.8125 L96.0298 106.8125" clip-path="url(#clipPath2)"/>
      <path d="M96.0298 114.8125 L101.0298 102.8125 L96.0298 105.8125 L91.0298 102.8125 Z" clip-path="url(#clipPath2)" stroke="none"/>
      <path fill="none" d="M96.0298 314.4375 L96.0298 336.4375" clip-path="url(#clipPath2)"/>
      <path d="M96.0298 344.4375 L101.0298 332.4375 L96.0298 335.4375 L91.0298 332.4375 Z" clip-path="url(#clipPath2)" stroke="none"/>
      <path fill="none" d="M96.0298 371.8438 L96.0298 393.8438" clip-path="url(#clipPath2)"/>
      <path d="M96.0298 401.8438 L101.0298 389.8438 L96.0298 392.8438 L91.0298 389.8438 Z" clip-path="url(#clipPath2)" stroke="none"/>
      <path fill="none" d="M117.0307 358.1406 L208.3944 358.1406 L208.3944 71.1094 L126.3725 71.1094" clip-path="url(#clipPath2)"/>
      <path d="M118.3725 71.1094 L130.3725 76.1094 L127.3725 71.1094 L130.3725 66.1094 Z" clip-path="url(#clipPath2)" stroke="none"/>
      <path fill="none" d="M58.6811 128.5156 L43.681 128.5156 L43.681 164.2188" clip-path="url(#clipPath2)"/>
      <path d="M43.681 172.2188 L48.681 160.2188 L43.681 163.2188 L38.681 160.2188 Z" clip-path="url(#clipPath2)" stroke="none"/>
      <path fill="none" d="M43.681 199.625 L43.681 415.5469 L54.0151 415.5469" clip-path="url(#clipPath2)"/>
      <path d="M62.0151 415.5469 L50.0151 410.5469 L53.0151 415.5469 L50.0151 420.5469 Z" clip-path="url(#clipPath2)" stroke="none"/>
      <path fill="none" d="M133.3784 128.5156 L148.3786 128.5156 L148.3786 164.2188" clip-path="url(#clipPath2)"/>
      <path d="M148.3786 172.2188 L153.3786 160.2188 L148.3786 163.2188 L143.3786 160.2188 Z" clip-path="url(#clipPath2)" stroke="none"/>
      <path fill="none" d="M148.3786 199.625 L148.3786 243.3281 L123.3696 243.3281" clip-path="url(#clipPath2)"/>
      <path d="M115.3696 243.3281 L127.3696 248.3281 L124.3696 243.3281 L127.3696 238.3281 Z" clip-path="url(#clipPath2)" stroke="none"/>
      <path fill="none" d="M96.0298 257.0312 L96.0298 279.0312" clip-path="url(#clipPath2)"/>
      <path d="M96.0298 287.0312 L101.0298 275.0312 L96.0298 278.0312 L91.0298 275.0312 Z" clip-path="url(#clipPath2)" stroke="none"/>
      <path fill="none" d="M96.0298 229.625 L96.0298 150.2188" clip-path="url(#clipPath2)"/>
      <path d="M96.0298 142.2188 L91.0298 154.2188 L96.0298 151.2188 L101.0298 154.2188 Z" clip-path="url(#clipPath2)" stroke="none"/>
    </g>
  </g>
</svg>
